<svg width="232" height="216" viewBox="0 0 232 216" fill="none" xmlns="http://www.w3.org/2000/svg">
<g clip-path="url(#clip0_4251_5969)">
<rect x="86.5" y="119.5" width="59" height="58" rx="2.5" fill="#FAFEFF" stroke="#8AA0A3"/>
<rect x="157.5" y="119.5" width="59" height="58" rx="2.5" fill="#FAFEFF" stroke="#8AA0A3"/>
<rect x="15.5" y="119.5" width="59" height="58" rx="2.5" fill="#FAFEFF" stroke="#8AA0A3"/>
<path d="M1 212V68C1 66.8954 1.89543 66 3.00001 66H227.5C229.433 66 231 67.567 231 69.5V212C231 213.933 229.433 215.5 227.5 215.5H4.5C2.567 215.5 1 213.933 1 212Z" fill="#4F8C94" fill-opacity="0.26" stroke="#B8BCBD"/>
<path d="M168.974 40.1335C168.946 48.5189 168.347 56.8938 167.18 65.2061C167.139 65.498 167.094 65.7899 167.053 66.0818H84.0988C83.8536 65.7934 83.6121 65.5015 83.3781 65.2061C82.5978 64.2284 81.866 63.2225 81.1935 62.1815C77.9612 57.1663 76.4602 51.2824 77.9055 47.2097L77.9314 47.1464C78.2433 46.2546 78.7383 45.4299 79.3878 44.7197C82.7167 41.1324 89.4934 41.6916 95.657 44.5403C90.1102 38.8569 85.6778 31.6717 85.3063 25.2391C84.9422 18.9649 88.3824 14.4631 92.12 10.6331C92.2426 10.5065 92.3653 10.3834 92.4879 10.2603C92.5474 10.197 92.6105 10.1372 92.6699 10.0739C95.5864 7.15485 98.9896 4.27445 103.942 4.59451C109.374 4.94621 115.419 9.21933 119.669 14.2134C123.919 19.204 126.757 24.8839 129.633 30.4267C132.513 35.9659 135.626 41.6459 140.222 46.3692C133.991 38.9941 128.953 30.592 127.062 22.4045C125.171 14.217 126.746 6.33541 132.237 2.44563C133.905 1.30087 135.837 0.550757 137.874 0.258074C138.111 0.219387 138.353 0.187735 138.598 0.159599C143.699 -0.417167 149.803 1.22173 155.012 5.18888C160.749 9.55696 164.746 16.0563 166.753 22.2357C168.759 28.415 169.004 34.3727 168.974 40.1335Z" fill="#42A7B3"/>
<path d="M114.854 66.0818H113.268C112.762 65.7864 112.254 65.4944 111.744 65.206C111.428 65.0196 111.109 64.8403 110.789 64.6574C105.51 61.6433 100.198 58.7536 94.8546 55.988C89.5157 53.2202 84.1508 50.5813 78.7599 48.0713C78.6171 48.0134 78.5002 47.9098 78.4296 47.7788C78.3591 47.6477 78.3392 47.4973 78.3736 47.3539C78.3792 47.3351 78.388 47.3172 78.3997 47.3011C78.4739 47.1675 78.6411 47.1112 78.8864 47.2237C79.5476 47.5332 80.2127 47.8427 80.8739 48.1593C86.2797 50.7126 91.6632 53.3948 97.0243 56.2061C102.382 59.0162 107.709 61.9517 113.007 65.0126C113.119 65.0759 113.23 65.1427 113.342 65.206C113.847 65.498 114.349 65.7899 114.854 66.0818Z" fill="white"/>
<path d="M135.306 66.0818H134.326C134.103 65.7899 133.883 65.498 133.661 65.2061C128.422 58.3339 123.185 51.4617 117.949 44.5896C109.374 33.3388 100.801 22.0879 92.2316 10.8371C92.1809 10.7766 92.143 10.7073 92.1201 10.6332C92.0459 10.3834 92.2391 10.2357 92.488 10.2604C92.5929 10.274 92.6936 10.3086 92.7833 10.362C92.873 10.4154 92.9496 10.4862 93.0081 10.5699C97.8156 16.8793 102.622 23.1864 107.427 29.4912C115.957 40.6857 124.486 51.8791 133.014 63.0713C133.557 63.7817 134.099 64.4957 134.641 65.2061C134.864 65.498 135.087 65.7899 135.306 66.0818Z" fill="white"/>
<path d="M157.126 60.5742C157.085 62.1393 156.985 63.6797 156.851 65.2061C156.825 65.498 156.799 65.7899 156.773 66.0818H155.744C155.774 65.7899 155.804 65.498 155.829 65.2061C156.034 63.0009 156.175 60.7712 156.182 58.4816C156.172 52.134 155.482 45.8039 154.121 39.5884C152.673 32.896 150.614 26.3355 147.964 19.9813C145.183 13.2795 141.84 6.79924 137.967 0.602705C137.894 0.50176 137.861 0.3797 137.874 0.258042C137.915 -0.0197989 138.305 -0.104206 138.598 0.159567C138.656 0.211318 138.706 0.270511 138.747 0.335416C139.226 1.10563 139.697 1.8782 140.159 2.6531C143.891 8.8849 147.092 15.3885 149.733 22.102C152.248 28.4778 154.171 35.0489 155.48 41.7408C156.707 47.949 157.258 54.2597 157.126 60.5742Z" fill="white"/>
<path d="M231.535 77.4976H0.46167V78.3743H231.535V77.4976Z" fill="#8AA0A3"/>
<path d="M8.33392 74.4116C9.86842 74.4116 11.1124 73.234 11.1124 71.7815C11.1124 70.3289 9.86842 69.1513 8.33392 69.1513C6.79943 69.1513 5.55548 70.3289 5.55548 71.7815C5.55548 73.234 6.79943 74.4116 8.33392 74.4116Z" fill="#7B7F80"/>
<path d="M16.322 74.4116C17.8565 74.4116 19.1004 73.234 19.1004 71.7815C19.1004 70.3289 17.8565 69.1513 16.322 69.1513C14.7875 69.1513 13.5435 70.3289 13.5435 71.7815C13.5435 73.234 14.7875 74.4116 16.322 74.4116Z" fill="#7B7F80"/>
<path d="M24.31 74.4116C25.8445 74.4116 27.0884 73.234 27.0884 71.7815C27.0884 70.3289 25.8445 69.1513 24.31 69.1513C22.7755 69.1513 21.5316 70.3289 21.5316 71.7815C21.5316 73.234 22.7755 74.4116 24.31 74.4116Z" fill="#7B7F80"/>
<path d="M102.905 152.03C100.126 150.317 98.7436 146.338 99.4245 142.699C100.105 139.059 102.669 135.925 105.743 134.573C107.239 133.935 108.878 133.659 110.514 133.769C112.15 133.879 113.731 134.372 115.116 135.204C117.935 136.835 121.921 137.729 123.26 140.993C124.289 143.502 122.984 148.596 121.599 151.033C120.403 153.139 118.129 154.102 115.993 154.521C113.629 154.977 111.19 154.947 108.839 154.434C106.489 153.921 104.282 152.936 102.369 151.545L102.905 152.03Z" fill="#2F2E41"/>
<path d="M101.455 171.359L99.2334 174.985L98.9399 175.463L98.5127 176.167H91.9626L92.4048 175.463L93.5491 173.638L96.2166 169.375L99.2371 170.519L101.455 171.359Z" fill="#FFB8B8"/>
<path d="M91.4722 176.167L90.2759 175.463L90.1273 175.375L97.6359 162.422C97.9588 161.862 98.396 161.367 98.9221 160.968C99.4482 160.568 100.053 160.271 100.701 160.094C101.519 159.863 102.386 159.833 103.22 160.006C103.707 160.103 104.175 160.269 104.609 160.499C104.788 160.591 104.961 160.695 105.126 160.808C105.761 161.229 106.283 161.786 106.649 162.433C107.085 163.19 107.301 164.044 107.274 164.906C107.246 165.768 106.977 166.608 106.493 167.339L103.599 171.718L101.125 175.463L100.66 176.167H91.4722Z" fill="#2F2E41"/>
<path d="M110.763 156.627C115.803 156.627 119.889 152.759 119.889 147.989C119.889 143.218 115.803 139.351 110.763 139.351C105.724 139.351 101.638 143.218 101.638 147.989C101.638 152.759 105.724 156.627 110.763 156.627Z" fill="#FFB8B8"/>
<path d="M119.924 176.167H99.4118L99.5047 175.917C99.4527 175.766 99.4043 175.615 99.3598 175.463C99.3115 175.305 99.2705 175.143 99.2335 174.985C98.9002 173.513 98.9014 171.99 99.2371 170.518C100.37 165.25 104.892 160.97 104.892 160.97C104.97 160.914 105.048 160.861 105.126 160.808C105.799 160.342 106.528 159.955 107.299 159.655C110.658 158.336 114.18 158.867 116.547 159.549C117.371 159.785 118.176 160.075 118.958 160.418C119.233 160.541 119.381 160.618 119.381 160.618L119.615 167.374L119.898 175.463L119.924 176.167Z" fill="#EF915D"/>
<path d="M129.413 175.463L127.845 167.916L126.262 160.305C126.196 159.991 126.031 159.703 125.789 159.479C125.547 159.255 125.239 159.105 124.906 159.05L121.592 158.508L118.508 158.005C118.211 157.954 117.904 157.982 117.622 158.084C117.34 158.186 117.093 158.36 116.907 158.585C116.675 158.859 116.548 159.198 116.547 159.549C116.547 159.765 116.593 159.98 116.684 160.179C118.293 163.731 118.323 169.354 117.914 175.463C117.895 175.695 117.88 175.931 117.862 176.167H129.561L129.413 175.463Z" fill="#2F2E41"/>
<path d="M107.299 159.654C107.231 159.399 107.097 159.163 106.908 158.968C106.72 158.774 106.483 158.626 106.22 158.54C105.956 158.453 105.674 158.43 105.399 158.473C105.124 158.515 104.864 158.621 104.643 158.782L103.22 160.006L97.3944 165.028C97.2128 165.183 97.0705 165.374 96.9782 165.588C96.3206 167.075 95.039 170.012 93.549 173.638C93.3076 174.229 93.0587 174.837 92.8024 175.463C92.7131 175.695 92.6166 175.931 92.5199 176.167H102.12C102.198 175.931 102.276 175.695 102.354 175.463C102.782 174.187 103.198 172.935 103.599 171.718C104.773 168.183 105.832 164.972 106.649 162.433C106.876 161.73 107.083 161.08 107.27 160.484C107.357 160.215 107.367 159.929 107.299 159.654Z" fill="#2F2E41"/>
<path d="M131.567 176.167H132.188L132.102 175.97L131.876 175.463L128.38 167.61L127.845 167.916L123.55 170.374L125.753 175.463L126.058 176.167H129.561H131.567Z" fill="#FFB8B8"/>
<path d="M128.023 161.381C127.55 160.209 126.617 159.256 125.418 158.72C124.219 158.185 122.848 158.109 121.592 158.508C121.431 158.558 121.274 158.617 121.12 158.684C120.24 159.055 119.49 159.657 118.958 160.418C118.741 160.721 118.562 161.048 118.427 161.392C118.185 161.988 118.071 162.623 118.091 163.262C118.111 163.9 118.264 164.528 118.542 165.109L119.615 167.374L123.457 175.463L123.791 176.167H131.567L132.102 175.97L133.492 175.463L133.685 175.393L128.023 161.381Z" fill="#2F2E41"/>
<path d="M117.93 138.068C118.248 138.158 118.589 138.147 118.899 138.035C119.21 137.924 119.473 137.718 119.647 137.451C119.813 137.179 119.91 136.874 119.932 136.56C119.954 136.247 119.9 135.933 119.773 135.642C119.514 135.062 119.106 134.552 118.586 134.16C117.995 133.654 117.276 133.301 116.499 133.137C116.111 133.058 115.709 133.059 115.321 133.14C114.933 133.22 114.568 133.379 114.25 133.605C113.938 133.838 113.707 134.155 113.586 134.513C113.466 134.872 113.461 135.256 113.572 135.618C113.808 136.266 114.448 136.701 115.087 137.024C116.355 137.665 117.754 138.042 119.188 138.128L117.93 138.068Z" fill="#2F2E41"/>
<path d="M119.705 147.731C118.238 147.922 118.427 147.215 117.839 145.929C117.252 144.642 116.465 143.114 114.991 142.984C113.782 142.877 112.787 143.791 111.808 144.471C110.063 145.681 107.711 146.273 105.689 145.547C103.666 144.821 102.261 142.539 103.028 140.625C103.267 140.096 103.618 139.62 104.06 139.225C104.501 138.83 105.023 138.525 105.594 138.328C106.74 137.943 107.956 137.783 109.169 137.858C111.867 137.94 114.513 138.581 116.921 139.737C118.582 140.536 120.2 141.679 120.83 143.34C121.46 145 121.875 147.333 120.073 147.782L119.705 147.731Z" fill="#2F2E41"/>
<path d="M117.18 133.501C116.455 132.306 117.054 130.667 118.24 129.869C119.427 129.07 121.018 128.992 122.434 129.312C123.834 129.646 125.117 130.323 126.154 131.274C127.191 132.225 127.945 133.418 128.342 134.732C128.942 136.822 128.585 139.066 129.094 141.177C129.365 142.303 129.877 143.364 130.598 144.295C131.318 145.226 132.233 146.008 133.285 146.592C134.337 147.176 135.504 147.55 136.714 147.691C137.924 147.832 139.152 147.737 140.322 147.411C141.846 146.988 143.395 145.958 143.545 144.461C143.703 146.18 143.289 147.902 142.361 149.388C141.433 150.873 140.038 152.046 138.371 152.743C136.407 153.518 134.217 153.569 132.09 153.517C130.704 153.484 129.286 153.405 128.008 152.897C127.123 152.515 126.328 151.97 125.668 151.293C125.009 150.617 124.499 149.822 124.168 148.957C123.517 147.217 123.342 145.349 123.657 143.528C123.867 142.111 124.283 140.723 124.399 139.296C124.516 137.87 124.295 136.347 123.366 135.219C122.437 134.091 120.663 133.514 119.342 134.21C118.812 134.489 118.383 134.946 117.807 135.126C117.23 135.306 116.413 134.989 116.465 134.417L117.18 133.501Z" fill="#2F2E41"/>
<path d="M179.45 176.167L179.52 175.463L181.616 154.826C182.303 154.317 183.041 153.872 183.819 153.5C188.132 151.442 192.294 152.427 194.545 153.278C195.142 153.499 195.718 153.766 196.269 154.077L197.495 175.463L197.536 176.167H179.45Z" fill="#EF915D"/>
<path d="M189.263 149.333C194.303 149.333 198.388 145.466 198.388 140.695C198.388 135.924 194.303 132.057 189.263 132.057C184.223 132.057 180.138 135.924 180.138 140.695C180.138 145.466 184.223 149.333 189.263 149.333Z" fill="#FFB8B8"/>
<path d="M196.667 145.962C197.345 145.285 197.795 144.433 197.96 143.513C198.125 142.594 197.998 141.648 197.594 140.798C197.19 139.947 196.527 139.229 195.691 138.736C194.855 138.242 193.882 137.995 192.898 138.026C191.636 138.066 190.447 138.555 189.242 138.914C187.417 139.502 185.47 139.668 183.564 139.398C181.646 139.116 179.915 138.149 178.728 136.695C177.599 135.226 177.247 133.189 178.044 131.536C178.965 129.629 181.116 128.578 183.139 127.724C183.955 127.337 184.827 127.066 185.726 126.92C186.176 126.849 186.638 126.867 187.08 126.972C187.523 127.078 187.938 127.269 188.299 127.534C188.868 127.997 189.201 128.692 189.82 129.094C190.516 129.545 191.421 129.533 192.261 129.613C194.153 129.792 195.943 130.513 197.392 131.678C198.841 132.844 199.881 134.399 200.373 136.138C200.866 137.877 200.787 139.716 200.148 141.412C199.509 143.107 198.34 144.578 196.797 145.629L196.667 145.962Z" fill="#2F2E41"/>
<path d="M185.179 157.073L183.819 153.5L183.734 153.277C183.694 153.171 183.629 153.076 183.544 152.998C183.459 152.919 183.356 152.86 183.243 152.825C183.131 152.79 183.011 152.78 182.894 152.795C182.776 152.81 182.664 152.85 182.565 152.912L181.021 153.887C181.021 153.887 171.12 153.887 170.325 159.51C170.314 159.598 170.299 159.697 170.288 159.802C170.287 159.807 170.286 159.812 170.284 159.816C170.184 160.186 168.315 167.023 166.71 175.463C166.666 175.695 166.621 175.931 166.576 176.167H188.092C188.792 167.688 188.4 159.804 185.179 157.073Z" fill="#2F2E41"/>
<path d="M210.844 175.463C209.67 166.804 207.991 159.802 207.991 159.802C207.976 159.697 207.961 159.598 207.95 159.51C207.158 153.887 197.257 153.887 197.257 153.887L195.714 152.913C195.616 152.851 195.503 152.81 195.386 152.795C195.268 152.78 195.148 152.791 195.036 152.826C194.923 152.861 194.82 152.92 194.735 152.998C194.65 153.077 194.585 153.172 194.545 153.278L193.1 157.073C189.879 159.804 189.487 167.687 190.187 176.166L210.937 176.167C210.907 175.931 210.874 175.695 210.844 175.463Z" fill="#2F2E41"/>
<path d="M36.5678 155.747L34.361 175.463L34.283 176.167H28.3126C28.3832 175.938 28.4538 175.702 28.5281 175.463C30.2223 169.963 32.5295 161.934 32.2804 159.806C31.8904 156.486 34.6211 155.378 34.6211 155.378L34.792 155.41L36.5678 155.747Z" fill="#EF915D"/>
<path d="M46.1967 149.661C51.2363 149.661 55.3218 145.794 55.3218 141.023C55.3218 136.253 51.2363 132.385 46.1967 132.385C41.157 132.385 37.0716 136.253 37.0716 141.023C37.0716 145.794 41.157 149.661 46.1967 149.661Z" fill="#A0616A"/>
<path d="M58.0087 171.982C57.5486 172.785 57.1716 173.628 56.8831 174.5C56.7753 174.809 56.6714 175.133 56.5747 175.463C56.5041 175.692 56.441 175.928 56.3778 176.167H32.3102C32.3437 175.935 32.3733 175.699 32.4069 175.463C33.6366 166.266 34.6322 156.932 34.792 155.41C34.8069 155.265 34.8144 155.191 34.8144 155.191C49.237 147.996 59.7624 157.407 59.7624 157.407C59.7624 157.407 59.7772 157.474 59.7996 157.604C60.03 158.919 61.2039 166.601 58.0087 171.982Z" fill="#EF915D"/>
<path d="M56.8831 174.5L55.2781 171.243L55.6682 158.329L59.7996 157.604L59.9445 157.579C62.08 158.755 63.7325 160.579 64.6331 162.756C65.4356 164.656 66.9626 170.367 68.2518 175.463C68.3113 175.699 68.3706 175.935 68.4302 176.167H57.7041L57.3585 175.463L56.8831 174.5Z" fill="#EF915D"/>
<path d="M177.301 196.565H54.6966C53.9083 196.565 53.1523 196.269 52.5949 195.741C52.0375 195.213 51.7244 194.498 51.7244 193.752C51.7244 193.005 52.0375 192.29 52.5949 191.762C53.1523 191.234 53.9083 190.938 54.6966 190.938H177.301C178.089 190.938 178.845 191.234 179.402 191.762C179.96 192.29 180.273 193.005 180.273 193.752C180.273 194.498 179.96 195.213 179.402 195.741C178.845 196.269 178.089 196.565 177.301 196.565Z" fill="#A0A4A5"/>
<path d="M142.934 103.365H89.0629C88.2746 103.365 87.5186 103.069 86.9612 102.541C86.4038 102.014 86.0906 101.298 86.0906 100.552C86.0906 99.8055 86.4038 99.0898 86.9612 98.5622C87.5186 98.0345 88.2746 97.7381 89.0629 97.7381H142.934C143.723 97.7381 144.479 98.0345 145.036 98.5622C145.593 99.0898 145.907 99.8055 145.907 100.552C145.907 101.298 145.593 102.014 145.036 102.541C144.479 103.069 143.723 103.365 142.934 103.365Z" fill="#EF915D"/>
<path d="M50.5614 148.549C50.8704 148.838 51.2789 149.011 51.712 149.037C52.1451 149.064 52.5737 148.941 52.919 148.692C55.0697 147.183 56.9577 145.305 58.075 143.013C59.3553 140.388 59.4982 137.166 57.9545 134.671C56.6496 132.562 54.3453 131.201 52.0488 130.083C51.1571 129.606 50.1966 129.256 49.1977 129.043C48.1882 128.832 47.1318 128.993 46.2435 129.494C45.809 129.752 45.4666 130.128 45.2611 130.573C45.0556 131.017 44.9965 131.511 45.0916 131.988C43.9885 130.796 42.5756 129.898 40.9929 129.383C39.9963 129.014 38.9051 128.939 37.8627 129.168C36.4053 129.56 35.3414 130.785 34.7595 132.109C34.2889 133.116 34.1264 134.228 34.2905 135.319C34.3768 135.861 34.5825 136.38 34.8942 136.843C35.2059 137.305 35.6167 137.701 36.1 138.004C37.3049 138.709 38.8421 138.658 40.2259 138.37C41.6096 138.082 42.9491 137.58 44.3596 137.454C45.7702 137.327 47.3409 137.66 48.1993 138.727C48.8039 139.478 48.9591 140.46 49.0948 141.396L49.8006 146.263C49.8584 146.967 50.0483 147.656 50.3616 148.297C50.4159 148.389 50.4831 148.474 50.5614 148.549Z" fill="#2F2E41"/>
</g>
<defs>
<clipPath id="clip0_4251_5969">
<rect width="232" height="216" rx="4" fill="white"/>
</clipPath>
</defs>
</svg>
