<svg width="246" height="212" viewBox="0 0 246 212" fill="none" xmlns="http://www.w3.org/2000/svg">
<g clip-path="url(#clip0_5903_1119)">
<path d="M18.9478 193.772C20.3588 194.268 21.8739 194.392 23.3469 194.133C24.82 193.874 26.2014 193.239 27.358 192.291C30.3037 189.818 31.2275 185.746 31.9788 181.974L34.2015 170.818L29.548 174.023C26.2013 176.327 22.7795 178.705 20.4625 182.043C18.1455 185.38 17.1346 189.937 18.9957 193.548" fill="#E3A91D"/>
<path d="M19.6661 208.055C19.0804 203.788 18.4778 199.466 18.8896 195.153C19.2546 191.323 20.4232 187.582 22.8023 184.514C24.0652 182.889 25.6018 181.496 27.3432 180.399C27.7971 180.112 28.2151 180.832 27.763 181.117C24.7499 183.021 22.4194 185.833 21.1074 189.147C19.6584 192.833 19.4257 196.85 19.6753 200.765C19.8261 203.133 20.1467 205.485 20.4687 207.834C20.4941 207.94 20.4782 208.052 20.4243 208.147C20.3703 208.242 20.2823 208.313 20.1781 208.345C20.0717 208.374 19.9583 208.36 19.8625 208.305C19.7667 208.251 19.6963 208.161 19.6664 208.055L19.6661 208.055Z" fill="#EDF0F1"/>
<path d="M23.8809 201.208C24.486 202.128 25.3178 202.877 26.2962 203.382C27.2747 203.887 28.3668 204.132 29.4672 204.092C32.2959 203.958 34.6531 201.985 36.7749 200.111L43.052 194.568L38.8977 194.37C35.9102 194.226 32.8455 194.092 29.9999 195.015C27.1544 195.937 24.5301 198.153 24.0098 201.099" fill="#E3A91D"/>
<path d="M18.0098 210.508C20.8296 205.519 24.1 199.974 29.9443 198.202C31.5691 197.711 33.2729 197.535 34.9638 197.684C35.4968 197.73 35.3637 198.551 34.8318 198.505C31.9973 198.27 29.1684 199.018 26.8211 200.625C24.5623 202.162 22.8036 204.3 21.3152 206.566C20.4034 207.955 19.5866 209.402 18.7699 210.847C18.509 211.309 17.7458 210.976 18.0098 210.508Z" fill="#EDF0F1"/>
<path d="M243.635 148.916H88.176C87.697 148.915 87.2378 148.725 86.8991 148.386C86.5603 148.047 86.3698 147.588 86.3691 147.109V2.73853C86.3698 2.2595 86.5603 1.80028 86.8991 1.46156C87.2378 1.12284 87.697 0.932267 88.176 0.931641H243.635C244.114 0.932267 244.573 1.12284 244.912 1.46156C245.251 1.80028 245.441 2.2595 245.442 2.73853V147.109C245.441 147.588 245.251 148.047 244.912 148.386C244.573 148.724 244.114 148.915 243.635 148.916Z" fill="#B4D1D5"/>
<path d="M243.635 148.916H88.176C87.697 148.915 87.2378 148.725 86.8991 148.386C86.5603 148.047 86.3698 147.588 86.3691 147.109V2.73853C86.3698 2.2595 86.5603 1.80028 86.8991 1.46156C87.2378 1.12284 87.697 0.932267 88.176 0.931641H243.635C244.114 0.932267 244.573 1.12284 244.912 1.46156C245.251 1.80028 245.441 2.2595 245.442 2.73853V147.109C245.441 147.588 245.251 148.047 244.912 148.386C244.573 148.724 244.114 148.915 243.635 148.916ZM88.176 1.65297C87.8889 1.65359 87.6138 1.76792 87.4108 1.97092C87.2078 2.17392 87.0935 2.44907 87.0928 2.73616V147.109C87.0935 147.396 87.2078 147.671 87.4108 147.874C87.6138 148.077 87.8889 148.191 88.176 148.192H243.635C243.922 148.191 244.197 148.077 244.4 147.874C244.603 147.671 244.718 147.396 244.718 147.109V2.73853C244.718 2.45144 244.603 2.17629 244.4 1.97329C244.197 1.77029 243.922 1.65597 243.635 1.65534L88.176 1.65297Z" fill="#EDF0F1"/>
<path d="M161.635 38.4471C161.31 38.4477 160.998 38.5772 160.769 38.8072C160.539 39.0372 160.41 39.3489 160.41 39.6738C160.41 39.9988 160.539 40.3105 160.769 40.5405C160.998 40.7705 161.31 40.9 161.635 40.9005H228.946C229.271 40.9 229.583 40.7705 229.812 40.5405C230.042 40.3105 230.171 39.9988 230.171 39.6738C230.171 39.3489 230.042 39.0372 229.812 38.8072C229.583 38.5772 229.271 38.4477 228.946 38.4471H161.635Z" fill="#EDF0F1"/>
<path d="M161.634 45.8077C161.309 45.8085 160.998 45.9381 160.768 46.1681C160.539 46.398 160.41 46.7096 160.41 47.0344C160.41 47.3593 160.539 47.6708 160.768 47.9008C160.998 48.1308 161.309 48.2604 161.634 48.2611H195.998C196.323 48.2604 196.634 48.1308 196.863 47.9008C197.093 47.6708 197.222 47.3593 197.222 47.0344C197.222 46.7096 197.093 46.398 196.863 46.1681C196.634 45.9381 196.323 45.8085 195.998 45.8077H161.634Z" fill="#EDF0F1"/>
<path d="M102.802 85.3917C102.477 85.3925 102.166 85.5221 101.936 85.7521C101.707 85.982 101.578 86.2936 101.578 86.6184C101.578 86.9433 101.707 87.2548 101.936 87.4848C102.166 87.7148 102.477 87.8443 102.802 87.8451H229.011C229.336 87.8443 229.647 87.7148 229.877 87.4848C230.106 87.2548 230.235 86.9433 230.235 86.6184C230.235 86.2936 230.106 85.982 229.877 85.7521C229.647 85.5221 229.336 85.3925 229.011 85.3917H102.802Z" fill="#EDF0F1"/>
<path d="M102.802 92.7532C102.477 92.754 102.166 92.8835 101.936 93.1135C101.707 93.3435 101.578 93.655 101.578 93.9799C101.578 94.3047 101.707 94.6163 101.936 94.8462C102.166 95.0762 102.477 95.2058 102.802 95.2066H196.064C196.389 95.2058 196.7 95.0762 196.929 94.8462C197.159 94.6163 197.287 94.3047 197.287 93.9799C197.287 93.655 197.159 93.3435 196.929 93.1135C196.7 92.8835 196.389 92.754 196.064 92.7532H102.802Z" fill="#EDF0F1"/>
<path d="M102.802 99.9475C102.477 99.9483 102.166 100.078 101.936 100.308C101.707 100.538 101.578 100.849 101.578 101.174C101.578 101.499 101.707 101.811 101.936 102.041C102.166 102.271 102.477 102.4 102.802 102.401H229.011C229.336 102.4 229.647 102.271 229.877 102.041C230.106 101.811 230.235 101.499 230.235 101.174C230.235 100.849 230.106 100.538 229.877 100.308C229.647 100.078 229.336 99.9483 229.011 99.9475H102.802Z" fill="#EDF0F1"/>
<path d="M102.802 107.308C102.477 107.309 102.166 107.438 101.936 107.668C101.707 107.898 101.578 108.21 101.578 108.535C101.578 108.86 101.707 109.171 101.936 109.401C102.166 109.631 102.477 109.761 102.802 109.762H196.064C196.389 109.761 196.7 109.631 196.929 109.401C197.159 109.171 197.287 108.86 197.287 108.535C197.287 108.21 197.159 107.898 196.929 107.668C196.7 107.438 196.389 107.309 196.064 107.308H102.802Z" fill="#EDF0F1"/>
<path d="M102.802 114.694C102.477 114.695 102.166 114.824 101.936 115.054C101.707 115.284 101.578 115.596 101.578 115.921C101.578 116.245 101.707 116.557 101.936 116.787C102.166 117.017 102.477 117.147 102.802 117.147H229.011C229.336 117.147 229.647 117.017 229.877 116.787C230.106 116.557 230.235 116.245 230.235 115.921C230.235 115.596 230.106 115.284 229.877 115.054C229.647 114.824 229.336 114.695 229.011 114.694H102.802Z" fill="#EDF0F1"/>
<path d="M102.802 122.055C102.477 122.056 102.166 122.185 101.936 122.415C101.707 122.645 101.578 122.957 101.578 123.282C101.578 123.606 101.707 123.918 101.936 124.148C102.166 124.378 102.477 124.508 102.802 124.508H196.064C196.389 124.508 196.7 124.378 196.929 124.148C197.159 123.918 197.287 123.606 197.287 123.282C197.287 122.957 197.159 122.645 196.929 122.415C196.7 122.185 196.389 122.056 196.064 122.055H102.802Z" fill="#EDF0F1"/>
<path d="M122.792 60.9783C119.307 60.9783 115.899 59.9447 113.001 58.0081C110.103 56.0716 107.844 53.319 106.51 50.0986C105.176 46.8782 104.827 43.3345 105.507 39.9157C106.187 36.4969 107.865 33.3566 110.33 30.8917C112.795 28.4269 115.935 26.7483 119.354 26.0683C122.773 25.3882 126.316 25.7372 129.537 27.0712C132.757 28.4051 135.51 30.6641 137.446 33.5624C139.383 36.4607 140.417 39.8682 140.417 43.354C140.411 48.0266 138.553 52.5063 135.249 55.8103C131.945 59.1144 127.465 60.9729 122.792 60.9783Z" fill="#2C97A0"/>
<path d="M69.2927 127.617C69.2622 126.974 69.091 126.345 68.7912 125.775C68.4915 125.205 68.0704 124.707 67.5576 124.318C67.0448 123.928 66.4529 123.656 65.8234 123.52C65.1939 123.384 64.5423 123.387 63.9144 123.53L58.0888 115.32L52.2363 117.644L60.6259 129.122C60.9361 130.161 61.6165 131.05 62.5384 131.621C63.4603 132.192 64.5595 132.404 65.6278 132.219C66.696 132.033 67.6592 131.462 68.3346 130.614C69.0101 129.766 69.351 128.7 69.2927 127.617Z" fill="#A0616A"/>
<path d="M57.9396 127.008L40.3125 104.141L46.9172 83.3832C47.4012 78.1645 50.6669 76.7072 50.8059 76.6477L51.0178 76.5568L56.7651 91.8834L52.5452 103.136L62.9029 120.556L57.9396 127.008Z" fill="#244955"/>
<path d="M119.155 56.5151C118.516 56.5953 117.903 56.8145 117.357 57.1575C116.812 57.5004 116.349 57.9587 116 58.5001C115.651 59.0414 115.426 59.6527 115.339 60.2908C115.251 60.9289 115.305 61.5783 115.497 62.1933L107.762 68.6362L110.531 74.2915L121.326 65.0395C122.338 64.65 123.172 63.9028 123.669 62.9396C124.167 61.9764 124.294 60.864 124.027 59.8132C123.759 58.7625 123.116 57.8464 122.218 57.2385C121.32 56.6307 120.23 56.3733 119.155 56.5151Z" fill="#A0616A"/>
<path d="M119.426 67.8822L97.9893 87.2246L76.7832 82.2445C71.5427 82.1655 69.8373 79.0223 69.7672 78.8883L69.6602 78.684L84.4966 71.7689L96.0422 75.1061L112.609 63.4326L119.426 67.8822Z" fill="#244955"/>
<path d="M82.296 205.387L88.0556 205.387L90.7952 183.172L82.2949 183.172L82.296 205.387Z" fill="#A0616A"/>
<path d="M99.1621 210.734L81.0608 210.735L81.0605 203.741L94.0834 203.741C95.4303 203.741 96.722 204.276 97.6744 205.228C98.6269 206.18 99.162 207.472 99.162 208.819L99.1621 210.734Z" fill="#244955"/>
<path d="M59.2761 205.387L65.0357 205.387L67.7757 183.172L59.2754 183.172L59.2761 205.387Z" fill="#A0616A"/>
<path d="M76.1426 210.734L58.0413 210.735L58.041 203.741L71.0639 203.741C71.7308 203.741 72.3912 203.872 73.0073 204.127C73.6235 204.382 74.1833 204.756 74.6549 205.228C75.1265 205.7 75.5006 206.259 75.7558 206.876C76.0111 207.492 76.1425 208.152 76.1425 208.819L76.1426 210.734Z" fill="#244955"/>
<path d="M57.2266 124.299L57.6963 157.184L58.1664 200.405L68.5015 199.465L73.6693 139.802L80.2465 199.465H90.9164L91.9911 139.332L88.2328 126.178L57.2266 124.299Z" fill="#202F31"/>
<path d="M77.4561 128.715C66.2106 128.716 55.8592 123.626 55.7195 123.556L55.6034 123.498L54.6597 100.85C54.386 100.05 48.9974 84.258 48.0847 79.2385C47.1601 74.1531 60.5615 69.69 62.1889 69.168L62.5582 65.077L77.5762 63.4587L79.4796 68.6934L84.8674 70.7136C85.4782 70.9429 85.9837 71.3882 86.2881 71.9652C86.5925 72.5422 86.6747 73.2108 86.5191 73.8444L83.5246 86.0218L90.8381 126.311L89.2636 126.379C85.4895 128.083 81.4162 128.715 77.4561 128.715Z" fill="#244955"/>
<path d="M75.8415 59.5425C81.0815 56.678 83.0072 50.108 80.1428 44.868C77.2783 39.628 70.7084 37.7023 65.4683 40.5667C60.2283 43.4312 58.3026 50.0012 61.167 55.2412C64.0315 60.4812 70.6015 62.4069 75.8415 59.5425Z" fill="#A0616A"/>
<path d="M61.8978 60.5227C63.9585 62.7178 67.7855 61.5394 68.054 58.5406C68.0751 58.3078 68.0736 58.0735 68.0495 57.841C67.9108 56.5126 67.1434 55.3067 67.3272 53.9041C67.3688 53.5551 67.4989 53.2224 67.7051 52.9377C69.3472 50.7387 73.2019 53.9212 74.7517 51.9306C75.702 50.71 74.5849 48.7882 75.3142 47.4239C76.2766 45.6234 79.1274 46.5116 80.9152 45.5255C82.9043 44.4284 82.7853 41.3765 81.476 39.5202C79.8791 37.2564 77.0794 36.0485 74.3146 35.8744C71.5497 35.7003 68.8039 36.4477 66.2227 37.4536C63.2899 38.5966 60.3816 40.1761 58.5768 42.7549C56.382 45.8911 56.1707 50.1073 57.2684 53.7744C57.9362 56.0051 60.215 58.7302 61.8978 60.5227Z" fill="#202F31"/>
<path d="M137.956 211.013H0.918274C0.822881 211.013 0.731389 210.976 0.663936 210.908C0.596483 210.841 0.558594 210.749 0.558594 210.654C0.558594 210.558 0.596483 210.467 0.663936 210.399C0.731389 210.332 0.822881 210.294 0.918274 210.294H137.956C138.052 210.294 138.143 210.332 138.211 210.399C138.278 210.467 138.316 210.558 138.316 210.654C138.316 210.749 138.278 210.841 138.211 210.908C138.143 210.976 138.052 211.013 137.956 211.013Z" fill="#884B18"/>
<path d="M121.774 50.0106C121.456 50.0109 121.15 49.8907 120.918 49.6741L115.106 44.2762C114.862 44.0489 114.718 43.7339 114.706 43.4005C114.694 43.0671 114.814 42.7425 115.042 42.498C115.269 42.2535 115.583 42.1092 115.917 42.0967C116.25 42.0842 116.575 42.2046 116.82 42.4315L121.742 47.0037L131.481 37.2649C131.598 37.1473 131.737 37.0539 131.89 36.99C132.042 36.9262 132.207 36.8931 132.372 36.8928C132.538 36.8925 132.702 36.9249 132.855 36.9882C133.008 37.0515 133.148 37.1444 133.265 37.2616C133.382 37.3788 133.475 37.518 133.538 37.6712C133.601 37.8244 133.634 37.9885 133.633 38.1543C133.633 38.32 133.6 38.484 133.536 38.637C133.472 38.7899 133.379 38.9287 133.261 39.0454L122.665 49.6419C122.548 49.759 122.409 49.8518 122.256 49.915C122.103 49.9783 121.94 50.0107 121.774 50.0106Z" fill="white"/>
</g>
<defs>
<clipPath id="clip0_5903_1119">
<rect width="244.884" height="210.137" fill="white" transform="translate(0.558594 0.931641)"/>
</clipPath>
</defs>
</svg>