<svg width="14" height="16" viewBox="0 0 14 16" fill="none" xmlns="http://www.w3.org/2000/svg">
<path d="M8.15333 14C8.03613 14.202 7.86789 14.3697 7.66548 14.4863C7.46307 14.6029 7.23359 14.6643 7 14.6643C6.76641 14.6643 6.53693 14.6029 6.33452 14.4863C6.1321 14.3697 5.96387 14.202 5.84667 14M11 5.33331C11 4.27245 10.5786 3.25503 9.82843 2.50489C9.07828 1.75474 8.06087 1.33331 7 1.33331C5.93913 1.33331 4.92172 1.75474 4.17157 2.50489C3.42143 3.25503 3 4.27245 3 5.33331C3 9.99998 1 11.3333 1 11.3333H13C13 11.3333 11 9.99998 11 5.33331Z" stroke="#4B4D4D" stroke-width="1.6" stroke-linecap="round" stroke-linejoin="round"/>
</svg>
