<svg 
  width="19" 
  height="18" 
  viewBox="0 0 19 18" 
  fill="none" 
  xmlns="http://www.w3.org/2000/svg"
  >
  <path 
    d="M18.5 8.99955C18.5001 11.1187 17.7524 13.1699 16.3887 14.7919C15.0249 16.414 13.1325 17.5027 11.0448 17.8665C8.95708 18.2302 6.80798 17.8456 4.97601 16.7803C3.14404 15.7151 1.74671 14.0376 1.03014 12.0433C0.313568 10.049 0.323714 7.86574 1.05879 5.87816C1.79387 3.89058 3.20672 2.22613 5.04851 1.17798C6.8903 0.129826 9.04288 -0.2348 11.1271 0.148323C13.2114 0.531447 15.0935 1.63774 16.4422 3.27236C16.5091 3.3477 16.5602 3.43576 16.5924 3.53127C16.6245 3.62679 16.6371 3.72782 16.6294 3.8283C16.6216 3.92879 16.5937 4.02669 16.5472 4.11614C16.5008 4.20559 16.4368 4.28477 16.3591 4.34894C16.2814 4.41311 16.1915 4.46095 16.0949 4.48962C15.9983 4.51828 15.8968 4.52717 15.7967 4.51577C15.6966 4.50436 15.5998 4.47289 15.512 4.42323C15.4243 4.37357 15.3475 4.30674 15.2863 4.22674C14.1832 2.88922 12.6508 1.97518 10.9497 1.64009C9.24873 1.30501 7.48416 1.56959 5.95621 2.38881C4.42827 3.20804 3.23133 4.53132 2.56902 6.13353C1.90671 7.73575 1.81994 9.51793 2.32346 11.1769C2.82699 12.8359 3.8897 14.2692 5.33083 15.233C6.77196 16.1968 8.50248 16.6315 10.228 16.4633C11.9535 16.295 13.5675 15.5342 14.7953 14.3102C16.0231 13.0861 16.7889 11.4745 16.9625 9.74955H9.5C9.30109 9.74955 9.11032 9.67053 8.96967 9.52988C8.82902 9.38923 8.75 9.19846 8.75 8.99955C8.75 8.80064 8.82902 8.60987 8.96967 8.46922C9.11032 8.32857 9.30109 8.24955 9.5 8.24955H17.75C17.9489 8.24955 18.1397 8.32857 18.2803 8.46922C18.421 8.60987 18.5 8.80064 18.5 8.99955Z" 
    fill="#FBFFFF"
  />
</svg>
