<svg width="21" height="20" viewBox="0 0 21 20" fill="none" xmlns="http://www.w3.org/2000/svg">
<path d="M10.079 2.00847e-06C8.71769 -0.000863876 7.37079 0.278252 6.12196 0.820002C6.10096 0.828002 6.08296 0.839002 6.06396 0.848002C4.08231 1.71485 2.43561 3.20155 1.37142 5.0846C0.307228 6.96764 -0.116939 9.14525 0.16269 11.29C0.442319 13.4348 1.41063 15.4309 2.92205 16.9782C4.43346 18.5254 6.4063 19.5402 8.54396 19.87C8.62 19.9167 8.7021 19.9527 8.78796 19.977C8.85765 19.9919 8.92869 19.9996 8.99996 20C9.0824 19.9963 9.16405 19.9822 9.24296 19.958C9.51896 19.981 9.79596 20 10.078 20C12.7301 20 15.2737 18.9464 17.149 17.0711C19.0244 15.1957 20.078 12.6522 20.078 10C20.078 7.34784 19.0244 4.8043 17.149 2.92893C15.2737 1.05357 12.7301 2.00847e-06 10.078 2.00847e-06H10.079ZM16.332 5.025C15.7169 5.08606 15.1463 5.3728 14.7302 5.82986C14.3141 6.28693 14.0821 6.88193 14.079 7.5C13.9722 7.66511 13.8231 7.79859 13.6472 7.88652C13.4713 7.97446 13.2751 8.01365 13.079 8C12.8828 8.01365 12.6866 7.97446 12.5107 7.88652C12.3348 7.79859 12.1857 7.66511 12.079 7.5C12.0789 7.42012 12.0691 7.34055 12.05 7.263C11.8999 6.4406 11.5223 5.67672 10.96 5.05807C10.3977 4.43942 9.67333 3.99076 8.86896 3.763C8.06896 3.45 7.65896 3.275 7.53396 2.419C9.08966 1.89009 10.771 1.85608 12.3468 2.32166C13.9226 2.78724 15.3155 3.72954 16.334 5.019L16.332 5.025ZM5.69996 3.312C5.87723 3.87276 6.19387 4.37938 6.62026 4.78443C7.04665 5.18949 7.56884 5.47973 8.13796 5.628C8.62421 5.7359 9.0679 5.98464 9.41363 6.34318C9.75936 6.70171 9.99181 7.15415 10.082 7.644C10.2086 8.33504 10.5835 8.95596 11.136 9.38987C11.6885 9.82379 12.3806 10.0408 13.082 10C14.53 10 16.082 9 16.082 7.5C16.082 7.36739 16.1346 7.24022 16.2284 7.14645C16.3222 7.05268 16.4494 7 16.582 7H17.493C18.1451 8.5863 18.2592 10.3426 17.818 12H16.079C15.0181 12 14.0007 12.4214 13.2505 13.1716C12.5004 13.9217 12.079 14.9391 12.079 16V17.737C11.4501 17.9031 10.8033 17.9914 10.153 18C10.331 16.106 10.245 12.543 7.35296 11.212C6.96831 11.0731 6.62648 10.8363 6.36118 10.5251C6.09587 10.2138 5.91623 9.83881 5.83996 9.437C5.42176 7.98845 4.46688 6.7539 3.16996 5.985C3.79586 4.9108 4.66176 3.99595 5.69996 3.312ZM2.07896 10C2.08175 9.27704 2.18267 8.55781 2.37896 7.862C3.15183 8.38861 3.70973 9.17542 3.95096 10.079C4.11716 10.7374 4.43645 11.3473 4.88285 11.8591C5.32926 12.3708 5.89018 12.77 6.51996 13.024C8.23296 13.814 8.28396 16.324 8.16096 17.757C6.42718 17.3278 4.88672 16.3311 3.78464 14.9255C2.68257 13.5199 2.08217 11.7861 2.07896 10ZM14.079 16.918V16C14.079 15.4696 14.2897 14.9609 14.6647 14.5858C15.0398 14.2107 15.5485 14 16.079 14H17C16.2963 15.2099 15.2896 16.2156 14.079 16.918Z" fill="#3098A5"/>
</svg>
